<svg width="79" height="122" viewBox="0 0 79 122" fill="none" xmlns="http://www.w3.org/2000/svg">
<path d="M78.7812 13.9621V1.58206C78.7812 0.509012 77.518 -0.0835667 76.6648 0.573074L2.70546 56.9641C2.07707 57.4411 1.5686 58.052 1.21884 58.75C0.869075 59.4481 0.687256 60.2149 0.687256 60.992C0.687256 61.7691 0.869075 62.5359 1.21884 63.234C1.5686 63.9321 2.07707 64.5429 2.70546 65.0199L76.6648 121.411C77.5344 122.068 78.7812 121.475 78.7812 120.402V108.022C78.7812 107.237 78.4039 106.484 77.7805 106.004L18.718 61L77.7805 15.9801C78.4039 15.4996 78.7812 14.7469 78.7812 13.9621V13.9621Z" fill="black"/>
</svg>
