<svg width="16" height="15" viewBox="0 0 16 15" fill="none" xmlns="http://www.w3.org/2000/svg">
<path fill-rule="evenodd" clip-rule="evenodd" d="M14.7445 1.25551C14.826 1.33679 14.8906 1.43334 14.9348 1.53965C14.9789 1.64595 15.0016 1.75992 15.0016 1.87501C15.0016 1.9901 14.9789 2.10406 14.9348 2.21037C14.8906 2.31667 14.826 2.41323 14.7445 2.49451L2.49451 14.7445C2.33021 14.9088 2.10736 15.0011 1.87501 15.0011C1.64265 15.0011 1.41981 14.9088 1.25551 14.7445C1.0912 14.5802 0.998901 14.3574 0.998901 14.125C0.998901 13.8926 1.0912 13.6698 1.25551 13.5055L13.5055 1.25551C13.5868 1.17402 13.6833 1.10937 13.7896 1.06526C13.896 1.02115 14.0099 0.998444 14.125 0.998444C14.2401 0.998444 14.3541 1.02115 14.4604 1.06526C14.5667 1.10937 14.6632 1.17402 14.7445 1.25551Z" fill="#C8161D"/>
<path fill-rule="evenodd" clip-rule="evenodd" d="M1.25548 1.25551C1.17399 1.33679 1.10934 1.43334 1.06523 1.53965C1.02112 1.64595 0.998413 1.75992 0.998413 1.87501C0.998413 1.9901 1.02112 2.10406 1.06523 2.21037C1.10934 2.31667 1.17399 2.41323 1.25548 2.49451L13.5055 14.7445C13.6698 14.9088 13.8926 15.0011 14.125 15.0011C14.3573 15.0011 14.5802 14.9088 14.7445 14.7445C14.9088 14.5802 15.0011 14.3574 15.0011 14.125C15.0011 13.8926 14.9088 13.6698 14.7445 13.5055L2.49448 1.25551C2.4132 1.17402 2.31664 1.10937 2.21034 1.06526C2.10403 1.02115 1.99007 0.998444 1.87498 0.998444C1.75988 0.998444 1.64592 1.02115 1.53962 1.06526C1.43331 1.10937 1.33676 1.17402 1.25548 1.25551Z" fill="#C8161D"/>
</svg>
