<svg width="17" height="23" viewBox="0 0 17 23" fill="none" xmlns="http://www.w3.org/2000/svg">
<path d="M4.25005 0.498993H13.5C14.425 0.498993 16.105 0.896994 16.854 1.64499C16.9451 1.73929 16.9955 1.86559 16.9944 1.99669C16.9932 2.12779 16.9407 2.2532 16.848 2.3459C16.7553 2.43861 16.6298 2.49119 16.4987 2.49233C16.3676 2.49347 16.2413 2.44307 16.147 2.35199C15.674 1.87899 14.313 1.49799 13.501 1.49799H4.25105C3.56205 1.49799 3.00105 2.05899 3.00105 2.74799C3.00105 3.09199 3.14105 3.41399 3.39605 3.65499C3.46531 3.72025 3.51446 3.80396 3.53772 3.89623C3.56097 3.98851 3.55735 4.08551 3.52729 4.1758C3.49723 4.26609 3.44198 4.3459 3.36805 4.40582C3.29412 4.46574 3.2046 4.50327 3.11005 4.51399C2.80583 4.54806 2.52472 4.69265 2.3201 4.92032C2.11547 5.14799 2.00158 5.44288 2.00005 5.74899C2.00005 6.09299 2.14005 6.41499 2.39505 6.65599C2.46431 6.72125 2.51346 6.80496 2.53671 6.89723C2.55997 6.98951 2.55635 7.08651 2.52629 7.1768C2.49623 7.26709 2.44098 7.3469 2.36705 7.40682C2.29312 7.46674 2.2036 7.50428 2.10905 7.51499C1.80501 7.54884 1.52403 7.69327 1.31955 7.9208C1.11507 8.14833 1.00136 8.44308 1.00005 8.74899C1.00005 9.21499 1.26205 9.63899 1.68405 9.85499C1.76357 9.89483 1.83094 9.95527 1.87914 10.03C1.92734 10.1048 1.9546 10.1911 1.95807 10.2799C1.96154 10.3688 1.9411 10.457 1.89889 10.5353C1.85667 10.6136 1.79422 10.6791 1.71805 10.725C1.26905 11.003 1.00005 11.479 1.00005 11.999C1.00005 12.826 1.67305 13.499 2.50005 13.499H9.50005C9.58083 13.4994 9.66033 13.5193 9.73179 13.557C9.80324 13.5947 9.86454 13.6491 9.91048 13.7155C9.95642 13.782 9.98564 13.8585 9.99566 13.9387C10.0057 14.0189 9.99621 14.1003 9.96805 14.176C9.95805 14.203 9.00005 16.74 9.00005 18.499C9.00005 20.136 10.452 21.499 11 21.499C11.431 21.499 11.792 21.342 12 21.227V17.999C12.0001 17.9268 12.0158 17.8555 12.046 17.79L15.046 11.29C15.0939 11.1871 15.1749 11.1033 15.276 11.052L16.276 10.552C16.3348 10.5226 16.3988 10.5052 16.4643 10.5005C16.5298 10.4959 16.5956 10.5042 16.6579 10.525C16.7202 10.5458 16.7778 10.5787 16.8275 10.6218C16.8771 10.6648 16.9177 10.7172 16.947 10.776C16.9764 10.8348 16.9939 10.8987 16.9985 10.9643C17.0031 11.0298 16.9948 11.0956 16.974 11.1579C16.9532 11.2202 16.9203 11.2778 16.8773 11.3274C16.8342 11.377 16.7818 11.4176 16.723 11.447L15.88 11.868L13 18.109V21.499C13 21.651 12.931 21.794 12.812 21.89C12.2863 22.277 11.6528 22.4899 11 22.499C9.84305 22.499 8.00005 20.668 8.00005 18.499C8.00005 17.131 8.49005 15.428 8.79505 14.499H2.50005C1.12205 14.499 4.76837e-05 13.377 4.76837e-05 11.999C4.76837e-05 11.368 0.235046 10.776 0.650047 10.324C0.239048 9.91099 4.76837e-05 9.34999 4.76837e-05 8.74899C0.000398636 8.33394 0.11606 7.92714 0.334133 7.57399C0.552206 7.22083 0.864111 6.93521 1.23505 6.74899C0.970905 6.21838 0.927834 5.60471 1.11527 5.0424C1.3027 4.48009 1.70537 4.015 2.23505 3.74899C2.06575 3.40591 1.9866 3.02536 2.00507 2.64323C2.02354 2.26109 2.13901 1.88995 2.34061 1.56479C2.54221 1.23963 2.82329 0.971167 3.15735 0.7847C3.49142 0.598234 3.86747 0.499908 4.25005 0.498993Z" fill="black"/>
</svg>
