<svg width="17" height="23" viewBox="0 0 17 23" fill="none" xmlns="http://www.w3.org/2000/svg">
<path d="M12.75 22.501H3.49995C2.57495 22.501 0.894953 22.103 0.145953 21.355C0.0548737 21.2607 0.00447649 21.1344 0.0056157 21.0033C0.00675491 20.8722 0.0593393 20.7468 0.152043 20.6541C0.244747 20.5614 0.370154 20.5088 0.501252 20.5077C0.632351 20.5065 0.758652 20.5569 0.852953 20.648C1.32595 21.121 2.68695 21.502 3.49895 21.502H12.749C13.438 21.502 13.999 20.941 13.999 20.252C13.999 19.908 13.859 19.586 13.604 19.345C13.5347 19.2797 13.4855 19.196 13.4623 19.1038C13.439 19.0115 13.4426 18.9145 13.4727 18.8242C13.5028 18.7339 13.558 18.6541 13.632 18.5942C13.7059 18.5343 13.7954 18.4967 13.89 18.486C14.1942 18.4519 14.4753 18.3073 14.6799 18.0797C14.8845 17.852 14.9984 17.5571 15 17.251C15 16.907 14.86 16.585 14.605 16.344C14.5357 16.2787 14.4865 16.195 14.4633 16.1028C14.44 16.0105 14.4436 15.9135 14.4737 15.8232C14.5038 15.7329 14.559 15.6531 14.6329 15.5932C14.7069 15.5333 14.7964 15.4957 14.891 15.485C15.195 15.4512 15.476 15.3067 15.6804 15.0792C15.8849 14.8517 15.9986 14.5569 16 14.251C16 13.785 15.738 13.361 15.316 13.145C15.2364 13.1052 15.1691 13.0447 15.1209 12.97C15.0727 12.8952 15.0454 12.8089 15.0419 12.7201C15.0385 12.6312 15.0589 12.543 15.1011 12.4647C15.1433 12.3864 15.2058 12.3209 15.282 12.275C15.731 11.997 16 11.521 16 11.001C16 10.174 15.327 9.50101 14.5 9.50101H7.49995C7.41917 9.5006 7.33967 9.48071 7.26821 9.44301C7.19676 9.40531 7.13546 9.35093 7.08952 9.28447C7.04358 9.21802 7.01436 9.14145 7.00434 9.06129C6.99432 8.98113 7.00379 8.89973 7.03195 8.82401C7.04195 8.79701 7.99995 6.26001 7.99995 4.50101C7.99995 2.86401 6.54795 1.50101 5.99995 1.50101C5.56895 1.50101 5.20795 1.65801 4.99995 1.77301V5.00101C4.99985 5.07317 4.98416 5.14447 4.95395 5.21001L1.95395 11.71C1.90613 11.8129 1.82513 11.8967 1.72395 11.948L0.723953 12.448C0.665186 12.4774 0.601214 12.4948 0.535689 12.4995C0.470164 12.5041 0.404369 12.4958 0.342061 12.475C0.279753 12.4542 0.222152 12.4213 0.172546 12.3782C0.122941 12.3352 0.0823032 12.2828 0.0529528 12.224C0.0236023 12.1652 0.00611405 12.1013 0.00148676 12.0357C-0.00314052 11.9702 0.00518395 11.9044 0.0259843 11.8421C0.0467846 11.7798 0.0796537 11.7222 0.122715 11.6726C0.165776 11.623 0.218186 11.5824 0.276953 11.553L1.11995 11.132L3.99995 4.89101V1.50101C3.99995 1.34901 4.06895 1.20601 4.18795 1.11001C4.71367 0.723019 5.34722 0.510085 5.99995 0.501007C7.15695 0.501007 8.99995 2.33201 8.99995 4.50101C8.99995 5.86901 8.50995 7.57201 8.20495 8.50101H14.5C15.878 8.50101 17 9.62301 17 11.001C17 11.632 16.765 12.224 16.35 12.676C16.761 13.089 17 13.65 17 14.251C16.9996 14.6661 16.8839 15.0729 16.6659 15.426C16.4478 15.7792 16.1359 16.0648 15.765 16.251C16.0291 16.7816 16.0722 17.3953 15.8847 17.9576C15.6973 18.5199 15.2946 18.985 14.765 19.251C14.9343 19.5941 15.0134 19.9746 14.9949 20.3568C14.9765 20.7389 14.861 21.1101 14.6594 21.4352C14.4578 21.7604 14.1767 22.0288 13.8426 22.2153C13.5086 22.4018 13.1325 22.5001 12.75 22.501Z" fill="#C8161D"/>
</svg>
